<?xml version="1.0" encoding="UTF-8" standalone="no"?><!DOCTYPE svg PUBLIC "-//W3C//DTD SVG 1.1//EN" "http://www.w3.org/Graphics/SVG/1.1/DTD/svg11.dtd"><svg width="100%" height="100%" viewBox="0 0 383 468" version="1.1" xmlns="http://www.w3.org/2000/svg" xmlns:xlink="http://www.w3.org/1999/xlink" xml:space="preserve" xmlns:serif="http://www.serif.com/" style="fill-rule:evenodd;clip-rule:evenodd;stroke-linejoin:round;stroke-miterlimit:2;"><g id="Fondo"><path d="M331.01,60.968c17.103,20.605 32.341,35.338 45.894,83.414c23.388,82.962 -17.785,191.398 -122.323,228.377c-54.796,19.383 -140.326,18.037 -205.765,-53.537c-55.532,-60.738 -79.745,-184.367 18.939,-272.424c61.538,-54.911 179.347,-72.141 263.255,14.17l-290.009,234.878c14.26,22.501 33.725,37.369 37.199,40.023c17.381,13.276 41.882,30.683 88.288,37.705c123.159,18.637 238.469,-97.567 201.519,-231.917c-27.555,-100.192 -148.8,-170.909 -263.276,-110.716c-38.474,20.23 -59.798,51.593 -63.649,57.256c-60.857,89.506 -21.185,179.706 -0.081,207.649l290.009,-234.878Z" style="fill:#cfa06d;fill-opacity:0.98;"/><path d="M250.016,112.833c2.233,3.641 45.075,67.443 28.777,129.732c-24.156,92.325 -157.448,94.045 -175.738,-10.972c-11.095,-63.707 46.086,-189.227 116.165,-149.621c12.489,7.058 25.19,23.36 27.024,25.714c0.314,0.403 0.144,0.406 3.771,5.146l-126.967,152.947c30.374,50.86 112.746,55.045 143.778,-10.129c29.464,-61.881 -23.256,-179.088 -78.33,-174.203c-53.658,4.759 -105.272,126.737 -65.448,184.332l126.967,-152.947Z" style="fill:#cf9f6c;fill-opacity:0.98;"/><path d="M180.045,434.073c-11.957,13.458 1.129,31.192 17.328,25.052c0.292,-0.111 2.81,-1.065 2.849,-2.664c0.014,-0.562 0.153,-6.287 -0.702,-6.993c-0.672,-0.556 -9.89,0.842 -9.988,-1.971c-0.122,-3.478 -1.609,-5.175 1.947,-5.243c15.566,-0.3 16.035,-0.104 16.3,1.176c0.003,0.016 0.055,15.944 0.028,16.119c-0.845,5.497 -31.019,18.896 -40.185,-9.085c-5,-15.262 14.573,-37.265 35.632,-24.591c0.509,0.306 4.927,2.965 -0.966,7.358c-2.622,1.954 -10.887,-10.137 -22.243,0.844Z" style="fill:#cfa071;fill-opacity:0.98;"/><path d="M216.976,454.3c-7.544,-27.668 17.722,-36.605 32.326,-29.43c6.425,3.157 3.361,5.129 1.766,7.256c-2.781,3.707 -4.999,-1.926 -10.601,-2.314c-22.301,-1.544 -20.643,28.899 -4.923,30.385c15.978,1.511 12.629,-9.607 12.624,-9.659c-0.21,-2.283 -5.27,-1.455 -6.676,-1.476c-4.25,-0.064 -4.175,-1.32 -3.876,-5.533c0.09,-1.274 0.632,-1.411 15.908,-1.339c2.125,0.01 2.234,0.96 2.033,16.313c-0.099,7.551 -28.442,17.364 -38.58,-4.202Z" style="fill:#cfa171;fill-opacity:0.98;"/><path d="M135.999,258.17c-2.48,-4.186 -16.135,-27.236 -11.634,-59.693c0.798,-5.752 8.028,-5.732 7.262,1.033c-0.36,3.184 -2.739,24.211 3.057,39.932c15.039,40.798 48.329,41.352 52.921,42.706c4.861,1.433 3.88,8.484 -6.045,6.087c-21.353,-5.157 -29.885,-9.026 -45.56,-30.065Z" style="fill:#cfa06c;fill-opacity:0.98;"/><path d="M142.498,440.974c13.128,0.038 15.149,-0.269 15.341,1.437c0.677,6.009 -0.842,6.066 -1.34,6.084c-7.716,0.287 -20.059,-1.39 -20.135,1.991c-0.016,0.712 -0.19,8.487 1.195,8.818c2.453,0.586 22.839,-1.21 23.084,1.153c0.052,0.497 0.596,5.737 -1.112,6.151c-0.294,0.071 -29.019,0.193 -30.021,-0.131c-0.93,-0.301 -0.977,-0.661 -1.147,-31.975c-0.032,-5.812 -0.891,-11.193 2.112,-11.263c2.327,-0.054 27.111,-0.628 29.093,0.134c1.385,0.532 1.936,7.194 -1.059,7.245c-20.313,0.346 -22.09,-1.107 -22.161,1.865c-0.016,0.666 -0.186,7.822 1.008,8.267c0.386,0.144 0.379,0.017 5.142,0.225Z" style="fill:#cea171;fill-opacity:0.99;"/></g></svg>